<svg width="13" height="10" viewBox="0 0 13 10" fill="none" xmlns="http://www.w3.org/2000/svg">
<path d="M0.00240002 1.5072L6.4 4.7056L12.7976 1.5072C12.7739 1.09956 12.5953 0.71639 12.2983 0.436181C12.0012 0.155972 11.6083 -7.48677e-05 11.2 2.69467e-08H1.6C1.19167 -7.48677e-05 0.798758 0.155972 0.501742 0.436181C0.204727 0.71639 0.0260833 1.09956 0.00240002 1.5072Z" fill="#1E1F26"/>
<path d="M12.8 3.2944L6.4 6.4944L0 3.2944V8C0 8.42435 0.168571 8.83131 0.468629 9.13137C0.768687 9.43143 1.17565 9.6 1.6 9.6H11.2C11.6243 9.6 12.0313 9.43143 12.3314 9.13137C12.6314 8.83131 12.8 8.42435 12.8 8V3.2944Z" fill="#1E1F26"/>
</svg>
