<svg width="14" height="14" viewBox="0 0 14 14" fill="none" xmlns="http://www.w3.org/2000/svg">
<path d="M12.381 0H0.949405C0.425595 0 0 0.431548 0 0.96131V12.372C0 12.9018 0.425595 13.3333 0.949405 13.3333H12.381C12.9048 13.3333 13.3333 12.9018 13.3333 12.372V0.96131C13.3333 0.431548 12.9048 0 12.381 0ZM4.02976 11.4286H2.05357V5.06548H4.03274V11.4286H4.02976ZM3.04167 4.19643C2.40774 4.19643 1.89583 3.68155 1.89583 3.0506C1.89583 2.41964 2.40774 1.90476 3.04167 1.90476C3.67262 1.90476 4.1875 2.41964 4.1875 3.0506C4.1875 3.68452 3.6756 4.19643 3.04167 4.19643V4.19643ZM11.4375 11.4286H9.46131V8.33333C9.46131 7.59524 9.44643 6.64583 8.43452 6.64583C7.40476 6.64583 7.24702 7.44941 7.24702 8.27976V11.4286H5.27083V5.06548H7.16667V5.93452H7.19345C7.45833 5.43452 8.10417 4.90774 9.06548 4.90774C11.0655 4.90774 11.4375 6.22619 11.4375 7.94048V11.4286V11.4286Z" fill="white"/>
</svg>
